#N canvas 842 113 640 561 12;
#X obj 222 482 writesf~ 2;
#X obj 180 325 mtof;
#X msg 314 351 open testsound.wav;
#X obj 218 101 f;
#X obj 253 102 + 1;
#X obj 218 132 t f f;
#X obj 108 501 dac~;
#X obj 218 12 bng 15 250 50 0 empty empty empty 17 7 0 10 -262144 -1
-1;
#X msg 219 43 1;
#X msg 130 236 \; pd dsp 1;
#X obj 180 356 osc~ 0;
#X msg 340 376 start;
#X msg 424 416 stop;
#X msg 480 138 0;
#X msg 271 242 55;
#X obj 124 456 *~ 0.35;
#X msg 342 249 58;
#X msg 389 262 59;
#X msg 421 267 60;
#X msg 462 276 61;
#X msg 303 250 63;
#X obj 218 73 metro 50000 1 samp;
#X obj 208 298 makenote 127 500;
#X obj 252 353 / 127;
#X floatatom 258 155 5 0 0 0 - - -;
#X obj 251 405 line~;
#X msg 250 380 \$1 2;
#X obj 208 425 *~;
#X obj 218 177 sel 0 1 2 3 4 5 6 7 8 9 10 11 12 13;
#X connect 1 0 10 0;
#X connect 2 0 0 0;
#X connect 3 0 5 0;
#X connect 4 0 3 1;
#X connect 5 0 24 0;
#X connect 5 0 28 0;
#X connect 5 1 4 0;
#X connect 7 0 8 0;
#X connect 8 0 21 0;
#X connect 10 0 27 0;
#X connect 11 0 0 0;
#X connect 12 0 0 0;
#X connect 13 0 21 0;
#X connect 13 0 3 1;
#X connect 14 0 22 0;
#X connect 15 0 6 0;
#X connect 15 0 6 1;
#X connect 16 0 22 0;
#X connect 17 0 22 0;
#X connect 18 0 22 0;
#X connect 19 0 22 0;
#X connect 20 0 22 0;
#X connect 21 0 3 0;
#X connect 22 0 1 0;
#X connect 22 1 23 0;
#X connect 23 0 26 0;
#X connect 25 0 27 1;
#X connect 26 0 25 0;
#X connect 27 0 15 0;
#X connect 27 0 0 0;
#X connect 27 0 0 1;
#X connect 28 0 9 0;
#X connect 28 1 2 0;
#X connect 28 2 11 0;
#X connect 28 3 14 0;
#X connect 28 4 20 0;
#X connect 28 5 16 0;
#X connect 28 6 17 0;
#X connect 28 7 18 0;
#X connect 28 8 19 0;
#X connect 28 9 17 0;
#X connect 28 10 16 0;
#X connect 28 11 18 0;
#X connect 28 12 12 0;
#X connect 28 13 13 0;
