#N canvas 465 200 1052 729 12;
#X obj 30 20 inlet;
#X obj 30 489 outlet;
#X text 39 538 hour:minute:second:frame;
#X obj 30 195 / 1000;
#X obj 412 206 % 1000;
#X obj 412 320 / 1000;
#X obj 412 372 int;
#X obj 284 354 % 60;
#X obj 30 295 div 60;
#X obj 30 166 t f f, f 50;
#X obj 30 226 t f f, f 24;
#X obj 412 401 makefilename %02d;
#X obj 284 401 makefilename %02d;
#X obj 157 401 makefilename %02d;
#X obj 157 368 % 60;
#X obj 30 367 div 60;
#X obj 30 330 t f f, f 15;
#X obj 30 401 makefilename %02d;
#X obj 30 59 route float, f 55;
#X obj 544 401 makefilename %003d;
#X obj 412 292 route fps msec, f 31;
#X obj 412 229 list prepend fps;
#X obj 412 344 *, f 20;
#X obj 521 27 loadbang;
#X msg 521 81 fps \$1;
#X msg 521 192 fps;
#X msg 592 203 msec;
#X obj 592 154 sel msec;
#X obj 521 129 route fps;
#X obj 592 129 symbol;
#X obj 412 258 list trim;
#X obj 521 52 \$1;
#X text 82 19 milliseconds;
#X text 37 563 hour:minute:second.milliseconds;
#X msg 30 460 symbol \$1:\$2:\$3\$5\$4;
#X obj 30 433 pack s s s s s, f 74;
#X obj 695 404 symbol .;
#X msg 693 364 :;
#X msg 729 363 .;
#X obj 521 160 t b f b;
#X obj 592 178 t b b;
#X connect 0 0 18 0;
#X connect 3 0 10 0;
#X connect 4 0 21 0;
#X connect 5 0 22 0;
#X connect 6 0 11 0;
#X connect 7 0 12 0;
#X connect 8 0 16 0;
#X connect 9 0 3 0;
#X connect 9 1 4 0;
#X connect 10 0 8 0;
#X connect 10 1 7 0;
#X connect 11 0 35 3;
#X connect 12 0 35 2;
#X connect 13 0 35 1;
#X connect 14 0 13 0;
#X connect 15 0 17 0;
#X connect 16 0 15 0;
#X connect 16 1 14 0;
#X connect 17 0 35 0;
#X connect 18 0 9 0;
#X connect 18 1 28 0;
#X connect 18 1 29 0;
#X connect 19 0 35 3;
#X connect 20 0 5 0;
#X connect 20 1 19 0;
#X connect 21 0 30 0;
#X connect 22 0 6 0;
#X connect 23 0 31 0;
#X connect 24 0 28 0;
#X connect 25 0 21 1;
#X connect 26 0 21 1;
#X connect 27 0 40 0;
#X connect 28 0 39 0;
#X connect 29 0 27 0;
#X connect 30 0 20 0;
#X connect 31 0 24 0;
#X connect 34 0 1 0;
#X connect 35 0 34 0;
#X connect 36 0 35 4;
#X connect 37 0 36 0;
#X connect 38 0 36 0;
#X connect 39 0 25 0;
#X connect 39 1 22 1;
#X connect 39 2 37 0;
#X connect 40 0 26 0;
#X connect 40 1 38 0;
