#N canvas 1053 409 450 300 12;
#X obj 63 23 inlet;
#X obj 66 189 outlet;
#X obj 62 135 t a b;
#X msg 156 103 0, f 6;
#X obj 62 102 spigot 1;
#X obj 144 23 inlet;
#X obj 144 48 t b;
#X msg 144 73 1;
#X connect 0 0 4 0;
#X connect 2 0 1 0;
#X connect 2 1 3 0;
#X connect 3 0 4 1;
#X connect 4 0 2 0;
#X connect 5 0 6 0;
#X connect 6 0 7 0;
#X connect 7 0 4 1;
